<svg xmlns="http://www.w3.org/2000/svg" xmlns:xlink="http://www.w3.org/1999/xlink" width="500" zoomAndPan="magnify" viewBox="0 0 375 374.999991" height="500" preserveAspectRatio="xMidYMid meet" version="1.0"><defs><clipPath id="27bb6aa662"><path d="M 133.679688 122.332031 L 241.679688 122.332031 L 241.679688 252.832031 L 133.679688 252.832031 Z M 133.679688 122.332031 " clip-rule="nonzero"/></clipPath></defs><rect x="-37.5" width="450" fill="#ffffff" y="-37.499999" height="449.999989" fill-opacity="1"/><rect x="-37.5" width="450" fill="#ffffff" y="-37.499999" height="449.999989" fill-opacity="1"/><g clip-path="url(#27bb6aa662)"><path fill="#545454" d="M 146.496094 252.597656 L 133.679688 252.597656 L 133.679688 215.203125 L 146.824219 215.203125 L 146.824219 239.445312 C 147.558594 239.421875 148.28125 239.332031 148.996094 239.167969 C 149.710938 239.007812 150.40625 238.777344 151.078125 238.484375 C 151.75 238.1875 152.386719 237.832031 152.988281 237.410156 C 153.589844 236.992188 154.144531 236.519531 154.65625 235.996094 C 155.167969 235.46875 155.625 234.898438 156.023438 234.285156 C 156.425781 233.671875 156.765625 233.023438 157.039062 232.34375 C 157.316406 231.664062 157.523438 230.964844 157.667969 230.246094 C 157.808594 229.527344 157.878906 228.800781 157.878906 228.066406 L 157.878906 205.839844 L 133.679688 205.839844 L 133.679688 169.777344 C 133.679688 168.976562 133.722656 168.171875 133.800781 167.375 C 133.878906 166.574219 133.996094 165.78125 134.15625 164.992188 C 134.3125 164.207031 134.507812 163.429688 134.742188 162.660156 C 134.976562 161.890625 135.246094 161.136719 135.554688 160.394531 C 135.863281 159.652344 136.203125 158.925781 136.582031 158.21875 C 136.960938 157.511719 137.375 156.824219 137.820312 156.15625 C 138.269531 155.488281 138.746094 154.84375 139.253906 154.222656 C 139.765625 153.601562 140.304688 153.007812 140.871094 152.441406 C 141.441406 151.871094 142.035156 151.332031 142.65625 150.824219 C 143.277344 150.3125 143.921875 149.835938 144.585938 149.390625 C 145.253906 148.941406 145.941406 148.53125 146.652344 148.152344 C 147.359375 147.773438 148.085938 147.429688 148.828125 147.121094 C 149.570312 146.8125 150.324219 146.542969 151.09375 146.308594 C 151.859375 146.074219 152.636719 145.878906 153.425781 145.722656 C 154.214844 145.566406 155.007812 145.449219 155.804688 145.367188 C 156.605469 145.289062 157.40625 145.25 158.210938 145.246094 L 199.214844 145.246094 C 199.835938 145.253906 200.453125 145.289062 201.070312 145.359375 C 201.6875 145.425781 202.296875 145.519531 202.90625 145.648438 C 203.511719 145.773438 204.109375 145.929688 204.703125 146.113281 C 205.292969 146.300781 205.875 146.511719 206.445312 146.753906 C 207.015625 146.996094 207.574219 147.265625 208.121094 147.5625 C 208.664062 147.859375 209.195312 148.179688 209.707031 148.527344 C 210.21875 148.875 210.714844 149.246094 211.191406 149.644531 C 211.667969 150.039062 212.125 150.457031 212.5625 150.898438 C 212.996094 151.339844 213.410156 151.800781 213.800781 152.28125 C 214.195312 152.761719 214.558594 153.261719 214.902344 153.777344 C 215.246094 154.296875 215.5625 154.828125 215.851562 155.375 C 216.140625 155.921875 216.40625 156.484375 216.640625 157.058594 C 216.878906 157.628906 217.085938 158.214844 217.261719 158.808594 C 217.441406 159.402344 217.589844 160.003906 217.710938 160.609375 C 217.832031 161.21875 217.921875 161.832031 217.980469 162.449219 C 218.042969 163.066406 218.074219 163.683594 218.074219 164.304688 C 218.074219 164.925781 218.042969 165.542969 217.980469 166.160156 C 217.921875 166.777344 217.832031 167.390625 217.710938 167.996094 C 217.589844 168.605469 217.441406 169.207031 217.261719 169.800781 C 217.085938 170.394531 216.878906 170.976562 216.640625 171.550781 C 216.40625 172.125 216.140625 172.683594 215.851562 173.234375 C 215.5625 173.78125 215.246094 174.3125 214.902344 174.828125 C 214.558594 175.347656 214.195312 175.84375 213.800781 176.324219 C 213.410156 176.808594 212.996094 177.269531 212.5625 177.707031 C 212.125 178.148438 211.667969 178.566406 211.191406 178.964844 C 210.714844 179.359375 210.21875 179.730469 209.707031 180.078125 C 209.195312 180.425781 208.664062 180.75 208.121094 181.046875 C 207.574219 181.34375 207.015625 181.609375 206.445312 181.851562 C 205.875 182.09375 205.292969 182.308594 204.703125 182.492188 C 204.109375 182.679688 203.511719 182.832031 202.90625 182.960938 C 202.296875 183.085938 201.6875 183.183594 201.070312 183.25 C 200.453125 183.316406 199.835938 183.355469 199.214844 183.359375 L 171.023438 183.359375 L 171.023438 192.683594 L 199.597656 192.683594 C 215.355469 192.683594 228.171875 179.867188 228.171875 164.113281 C 228.171875 148.355469 215.355469 135.539062 199.597656 135.539062 L 146.011719 135.539062 L 146.011719 122.394531 L 199.597656 122.394531 C 222.601562 122.394531 241.316406 141.105469 241.316406 164.113281 C 241.316406 187.117188 222.601562 205.839844 199.597656 205.839844 L 171.023438 205.839844 L 171.023438 228.066406 C 171.023438 228.871094 170.984375 229.671875 170.902344 230.46875 C 170.824219 231.269531 170.707031 232.0625 170.550781 232.851562 C 170.390625 233.636719 170.195312 234.417969 169.960938 235.183594 C 169.730469 235.953125 169.457031 236.707031 169.152344 237.449219 C 168.84375 238.191406 168.5 238.917969 168.121094 239.625 C 167.742188 240.332031 167.328125 241.023438 166.882812 241.6875 C 166.4375 242.355469 165.957031 243 165.449219 243.621094 C 164.9375 244.242188 164.398438 244.835938 163.832031 245.40625 C 163.265625 245.972656 162.671875 246.511719 162.050781 247.023438 C 161.429688 247.53125 160.785156 248.007812 160.117188 248.457031 C 159.449219 248.902344 158.761719 249.316406 158.054688 249.695312 C 157.34375 250.070312 156.621094 250.414062 155.878906 250.722656 C 155.136719 251.03125 154.378906 251.300781 153.613281 251.535156 C 152.84375 251.769531 152.066406 251.964844 151.277344 252.121094 C 150.492188 252.277344 149.695312 252.398438 148.898438 252.476562 C 148.097656 252.554688 147.296875 252.597656 146.496094 252.597656 Z M 146.824219 192.683594 L 157.878906 192.683594 L 157.878906 170.210938 L 199.214844 170.210938 C 199.597656 170.203125 199.976562 170.160156 200.351562 170.078125 C 200.726562 169.996094 201.089844 169.882812 201.441406 169.730469 C 201.796875 169.578125 202.128906 169.394531 202.445312 169.175781 C 202.761719 168.960938 203.054688 168.714844 203.324219 168.441406 C 203.59375 168.167969 203.832031 167.871094 204.042969 167.550781 C 204.253906 167.230469 204.429688 166.890625 204.578125 166.535156 C 204.722656 166.179688 204.832031 165.816406 204.90625 165.441406 C 204.980469 165.0625 205.015625 164.683594 205.015625 164.300781 C 205.015625 163.917969 204.980469 163.535156 204.90625 163.160156 C 204.832031 162.785156 204.722656 162.417969 204.578125 162.0625 C 204.429688 161.707031 204.253906 161.371094 204.042969 161.050781 C 203.832031 160.730469 203.59375 160.433594 203.324219 160.160156 C 203.054688 159.886719 202.761719 159.640625 202.445312 159.421875 C 202.128906 159.207031 201.796875 159.023438 201.441406 158.871094 C 201.089844 158.71875 200.726562 158.601562 200.351562 158.519531 C 199.976562 158.441406 199.597656 158.394531 199.214844 158.390625 L 158.21875 158.390625 C 157.472656 158.390625 156.734375 158.464844 156 158.609375 C 155.265625 158.757812 154.554688 158.972656 153.867188 159.257812 C 153.175781 159.546875 152.519531 159.894531 151.898438 160.3125 C 151.277344 160.726562 150.703125 161.199219 150.171875 161.726562 C 149.644531 162.253906 149.171875 162.832031 148.757812 163.453125 C 148.34375 164.074219 147.992188 164.730469 147.707031 165.417969 C 147.417969 166.109375 147.203125 166.820312 147.054688 167.554688 C 146.910156 168.285156 146.835938 169.027344 146.835938 169.773438 Z M 146.824219 192.683594 " fill-opacity="1" fill-rule="nonzero"/></g></svg>